<svg width="1309" height="556" viewBox="0 0 1309 556" fill="none" xmlns="http://www.w3.org/2000/svg">
<path d="M924.705 277.865L893.772 30.3906C891.6 13.026 876.84 0 859.257 0H514.855C498.574 0 411.986 0 411.986 0C411.986 0 411.986 0 411.986 0C292.986 0 562.486 74 623.486 83.5C684.486 93 723.47 186.5 723.47 186.5L547.741 173.667C525.814 173.667 507.907 191.469 507.907 213.5C507.907 221.531 510.293 229.349 514.855 235.969L723.47 540.969C729.876 550.307 740.402 555.844 751.585 555.844H754.73C771.772 555.844 785.663 541.948 785.663 524.906C785.663 522.411 785.34 519.912 784.689 517.417L733.673 312.599H889.97C909.184 312.599 924.705 297.078 924.705 277.865Z" fill="#CCFF33"/>
</svg>